<svg width="1440" height="863" viewBox="0 0 1440 863" fill="none" xmlns="http://www.w3.org/2000/svg">
<path d="M0 0H1440V618.754C1440 618.754 1329.59 699.727 1246.93 703.469C1134.63 708.555 1078.16 636.862 965.831 641.424C828.962 646.982 773.594 752.033 637.123 763.839C527.722 773.303 487.744 728.41 377.74 728.41C219.42 728.41 168.981 889.533 0 858.709V0Z" fill="url(#paint0_linear_1:41)"/>
<path d="M748.568 426.732L771.37 387.238L794.172 426.732H748.568Z" stroke="#71D5FF" stroke-opacity="0.24" stroke-width="5"/>
<path d="M1250.22 433.357L1266.96 462.351L1283.7 433.357H1250.22Z" stroke="#71D5FF" stroke-opacity="0.24" stroke-width="3"/>
<path d="M767.956 571.086L784.28 542.812L800.604 571.086H767.956Z" stroke="#71D5FF" stroke-opacity="0.24" stroke-width="5"/>
<circle cx="721.141" cy="297.988" r="13.6408" stroke="#71D5FF" stroke-opacity="0.24" stroke-width="3"/>
<rect x="1250.94" y="194.915" width="32.0266" height="32.0266" stroke="#71D5FF" stroke-opacity="0.24" stroke-width="3"/>
<rect x="929.088" y="94.5" width="32.0266" height="32.0266" stroke="#71D5FF" stroke-opacity="0.24" stroke-width="3"/>
<path d="M1018.14 167.267L1219.9 516.724H816.384L1018.14 167.267Z" fill="#71D5FF" fill-opacity="0.24"/>
<path d="M954.183 359.214C955.902 358.751 957.699 359.157 959.179 360.343C960.658 361.53 961.698 363.399 962.071 365.541C962.443 367.682 962.117 369.92 961.164 371.762C960.211 373.604 958.71 374.9 956.99 375.363C953.409 376.329 943.915 370.435 943.915 370.435C943.915 370.435 950.601 360.18 954.183 359.214Z" fill="#8C85FF"/>
<path d="M1059.56 514.148C1045.2 504.179 1036.26 490.569 1032.99 473.695C1030.56 461.168 1031.26 447.07 1035.06 431.795C1037.89 420.533 1042.11 409.895 1047.6 400.273C1076.68 349.011 1079.3 315.609 1076.38 296.615C1073.18 275.788 1062.79 267.138 1062.68 267.053L1063.13 266.194C1063.24 266.281 1073.91 275.131 1077.19 296.381C1079.08 308.631 1078.19 322.6 1074.55 337.898C1070.01 356.938 1061.17 378.123 1048.27 400.865C1042.84 410.398 1038.65 420.939 1035.85 432.098C1029.61 457.152 1028.73 491.568 1059.96 513.252L1059.56 514.148Z" fill="white" fill-opacity="0.24"/>
<path d="M1033.33 419.228C1022.01 411.37 1022.33 398.915 1024.59 389.851C1025.59 385.853 1027.09 382.077 1029.03 378.661C1039.22 360.703 1040.14 349.037 1039.12 342.412C1038.01 335.219 1034.45 332.266 1034.42 332.237L1034.87 331.377C1035.02 331.505 1038.76 334.601 1039.93 342.219C1041.46 352.139 1038.02 364.599 1029.71 379.253C1027.81 382.58 1026.35 386.259 1025.37 390.154C1023.2 398.856 1022.9 410.809 1033.74 418.333L1033.33 419.228Z" fill="white" fill-opacity="0.24"/>
<path d="M1084.27 305.412L1083.87 304.517C1094.71 296.992 1094.4 285.04 1092.23 276.338C1091.26 272.443 1089.79 268.764 1087.9 265.437C1079.58 250.783 1076.14 238.322 1077.67 228.403C1078.85 220.785 1082.58 217.689 1082.74 217.561L1083.19 218.42C1083.15 218.45 1079.57 221.442 1078.48 228.637C1077.47 235.257 1078.4 246.913 1088.57 264.845C1090.52 268.261 1092.02 272.037 1093.02 276.034C1095.28 285.099 1095.59 297.553 1084.27 305.412Z" fill="white" fill-opacity="0.24"/>
<path d="M1108.44 254.399C1107.56 256.091 1106.41 257.55 1105.07 258.691C1103.73 259.832 1102.23 260.634 1100.64 261.05C1099.05 261.466 1097.41 261.489 1095.82 261.117C1094.22 260.745 1092.7 259.985 1091.35 258.881C1089.99 257.777 1088.82 256.351 1087.9 254.683C1086.98 253.016 1086.34 251.14 1086.01 249.163C1085.67 247.186 1085.66 245.146 1085.96 243.161C1086.25 241.175 1086.87 239.282 1087.75 237.591C1091.48 230.476 1110.24 222.808 1110.24 222.808C1110.24 222.808 1112.17 247.284 1108.44 254.399Z" fill="#635BE8"/>
<path d="M1103.91 206.719C1103.03 208.411 1101.88 209.87 1100.54 211.011C1099.2 212.152 1097.7 212.954 1096.11 213.37C1094.52 213.787 1092.88 213.809 1091.29 213.437C1089.7 213.065 1088.18 212.305 1086.82 211.201C1085.46 210.097 1084.29 208.671 1083.37 207.003C1082.45 205.336 1081.81 203.46 1081.48 201.483C1081.14 199.506 1081.13 197.466 1081.43 195.481C1081.73 193.495 1082.34 191.603 1083.22 189.911C1086.95 182.797 1105.72 175.128 1105.72 175.128C1105.72 175.128 1107.64 199.605 1103.91 206.719Z" fill="#635BE8"/>
<path d="M1084 381.4C1081.11 381.405 1078.29 380.183 1076.03 377.934C1073.76 375.684 1072.18 372.542 1071.54 369.023C1070.9 365.504 1071.24 361.818 1072.5 358.571C1073.77 355.324 1075.88 352.71 1078.5 351.159C1084.71 347.47 1103.36 352.87 1104.15 353.101L1104.65 353.248L1104.43 353.824C1104.07 354.734 1095.69 376.167 1089.47 379.855C1087.77 380.872 1085.9 381.399 1084 381.4V381.4ZM1085.04 350.899C1082.51 350.899 1080.3 351.225 1078.85 352.084C1075.99 353.78 1073.79 356.821 1072.73 360.537C1071.67 364.253 1071.84 368.341 1073.21 371.901C1074.57 375.461 1077.01 378.202 1079.99 379.52C1082.98 380.838 1086.26 380.626 1089.12 378.93C1094.53 375.721 1102.05 357.46 1103.46 353.957C1101.21 353.335 1091.96 350.899 1085.04 350.899V350.899Z" fill="white" fill-opacity="0.24"/>
<path d="M1058.84 240.287C1060.03 241.648 1061.01 243.289 1061.69 245.118C1062.38 246.946 1062.78 248.926 1062.85 250.943C1062.93 252.961 1062.68 254.977 1062.13 256.877C1061.58 258.777 1060.73 260.523 1059.64 262.015C1058.55 263.508 1057.23 264.718 1055.76 265.576C1054.29 266.434 1052.7 266.923 1051.08 267.016C1049.46 267.109 1047.84 266.804 1046.32 266.118C1044.79 265.432 1043.39 264.378 1042.19 263.017C1037.15 257.294 1034.08 232.999 1034.08 232.999C1034.08 232.999 1053.79 234.564 1058.84 240.287Z" fill="#8C85FF"/>
<path d="M1030.02 304.885C1032.44 307.634 1033.88 311.467 1034.03 315.542C1034.18 319.617 1033.03 323.599 1030.82 326.614C1028.61 329.628 1025.53 331.427 1022.26 331.615C1018.99 331.803 1015.79 330.364 1013.37 327.616C1008.33 321.893 1005.27 297.597 1005.27 297.597C1005.27 297.597 1024.97 299.162 1030.02 304.885Z" fill="#6A61F5"/>
<path d="M1062.32 313.945C1058.2 313.945 1050.31 309.084 1049.95 308.859L1049.49 308.574L1049.82 308.077C1050.09 307.653 1056.64 297.67 1060.32 296.678C1062.14 296.186 1064.05 296.617 1065.62 297.877C1067.19 299.137 1068.3 301.123 1068.69 303.397C1069.09 305.672 1068.74 308.049 1067.73 310.005C1066.72 311.962 1065.12 313.337 1063.3 313.83C1062.98 313.911 1062.65 313.95 1062.32 313.945V313.945ZM1050.79 308.224C1052.73 309.378 1060.17 313.626 1063.12 312.827C1064.74 312.391 1066.14 311.176 1067.04 309.449C1067.93 307.721 1068.23 305.623 1067.89 303.615C1067.54 301.607 1066.56 299.854 1065.17 298.741C1063.79 297.629 1062.1 297.247 1060.49 297.68C1057.53 298.478 1052.17 306.174 1050.79 308.224Z" fill="white" fill-opacity="0.24"/>
<path d="M1007.25 471.86C1008.12 469.954 1009.56 468.556 1011.25 467.972C1012.95 467.387 1014.76 467.665 1016.29 468.744C1017.82 469.822 1018.94 471.614 1019.41 473.724C1019.88 475.834 1019.66 478.091 1018.8 479.997C1016.99 483.968 1007.14 488.871 1007.14 488.871C1007.14 488.871 1005.44 475.831 1007.25 471.86Z" fill="#8E87FF"/>
<path d="M996.555 434.569C993.713 434.512 990.878 434.208 988.071 433.658L987.564 433.556L987.755 432.962C987.918 432.454 991.786 420.503 995.064 418.195C995.87 417.628 996.757 417.264 997.676 417.124C998.594 416.984 999.526 417.071 1000.42 417.379C1001.31 417.687 1002.14 418.211 1002.87 418.921C1003.6 419.63 1004.21 420.512 1004.67 421.515C1005.12 422.518 1005.41 423.623 1005.53 424.766C1005.64 425.91 1005.57 427.07 1005.32 428.181C1005.07 429.291 1004.65 430.329 1004.08 431.237C1003.51 432.145 1002.81 432.904 1002 433.471C1000.82 434.3 998.749 434.569 996.555 434.569ZM988.718 432.743C990.847 433.127 998.96 434.433 1001.59 432.579C1003.03 431.568 1004.09 429.887 1004.53 427.906C1004.97 425.926 1004.76 423.809 1003.95 422.019C1003.14 420.23 1001.79 418.916 1000.2 418.366C998.607 417.817 996.906 418.076 995.47 419.087V419.087C992.835 420.942 989.551 430.273 988.718 432.743Z" fill="white" fill-opacity="0.24"/>
<circle cx="867.479" cy="356.634" r="10.6147" fill="#71D5FF" fill-opacity="0.24"/>
<path d="M1186.38 516.557H1048.65C1048.65 516.557 1045.86 465.569 1062.38 464.989C1078.9 464.41 1077.04 487.586 1097.74 455.719C1118.45 423.851 1143.57 425.589 1146.83 444.42C1150.09 463.251 1140.55 478.316 1158 473.68C1175.45 469.045 1200.57 481.213 1186.38 516.557Z" fill="#6C63FF" fill-opacity="0.38"/>
<path d="M1115.19 516.569L1114.73 516.546C1115.81 482.975 1121.46 461.406 1126 449.223C1130.94 435.995 1135.69 430.64 1135.74 430.587L1136.05 431.02C1136 431.072 1131.3 436.374 1126.41 449.513C1121.89 461.644 1116.27 483.125 1115.19 516.569Z" fill="#F2F2F2"/>
<path d="M1165.04 516.638L1164.59 516.476C1169.97 493.487 1182.64 478.972 1182.76 478.828L1183.08 479.257C1182.95 479.4 1170.38 493.812 1165.04 516.638Z" fill="#F2F2F2"/>
<path d="M1070.35 516.597L1069.88 516.517C1071.71 500.128 1068.41 487.413 1065.33 479.632C1061.98 471.208 1058.17 466.606 1058.13 466.561L1058.45 466.142C1058.49 466.189 1062.37 470.861 1065.74 479.376C1068.86 487.229 1072.19 500.062 1070.35 516.597Z" fill="#F2F2F2"/>
<path d="M902.11 516.587H989.319C989.319 516.587 991.086 484.301 980.627 483.934C970.168 483.567 971.347 498.243 958.236 478.064C945.125 457.886 929.216 458.986 927.153 470.91C925.091 482.834 931.131 492.373 920.082 489.438C909.034 486.502 893.124 494.207 902.11 516.587Z" fill="#6C63FF" fill-opacity="0.38"/>
<path d="M947.187 516.594L947.481 516.579C946.795 495.323 943.219 481.665 940.341 473.951C937.216 465.575 934.205 462.185 934.175 462.151L933.979 462.425C934.009 462.458 936.985 465.815 940.085 474.135C942.947 481.816 946.503 495.418 947.187 516.594Z" fill="#F2F2F2"/>
<path d="M915.624 516.638L915.907 516.536C912.501 501.979 904.481 492.788 904.4 492.697L904.202 492.969C904.282 493.059 912.242 502.185 915.624 516.638Z" fill="#F2F2F2"/>
<path d="M975.583 516.612L975.875 516.561C974.719 506.184 976.806 498.133 978.761 493.206C980.877 487.872 983.292 484.958 983.316 484.929L983.112 484.664C983.088 484.694 980.636 487.652 978.497 493.044C976.524 498.017 974.417 506.142 975.583 516.612Z" fill="#F2F2F2"/>
<rect x="1154.49" y="167.701" width="30.0266" height="30.0266" transform="rotate(45 1154.49 167.701)" stroke="#71D5FF" stroke-opacity="0.24" stroke-width="5"/>
<defs>
<linearGradient id="paint0_linear_1:41" x1="126.377" y1="9.99536e-05" x2="1327.71" y2="765.232" gradientUnits="userSpaceOnUse">
<stop stop-color="#3F4FD7"/>
<stop offset="0.484375" stop-color="#636CDC"/>
<stop offset="1" stop-color="#8E59FF"/>
</linearGradient>
</defs>
</svg>
