<svg width="461" height="348" viewBox="0 0 461 348" fill="none" xmlns="http://www.w3.org/2000/svg">
<path d="M259.248 171.509C257.316 171.091 255.296 171.457 253.634 172.528C251.972 173.598 250.803 175.285 250.385 177.218C249.966 179.15 250.333 181.169 251.403 182.832C252.474 184.494 254.161 185.663 256.093 186.081C260.117 186.952 270.786 181.634 270.786 181.634C270.786 181.634 263.272 172.38 259.248 171.509Z" fill="#8C85FF"/>
<path d="M140.839 311.312C156.975 302.316 167.02 290.035 170.696 274.81C173.425 263.506 172.64 250.785 168.365 237.002C165.195 226.839 160.443 217.24 154.283 208.558C121.605 162.302 118.655 132.162 121.936 115.023C125.532 96.2299 137.216 88.425 137.334 88.3485L136.83 87.5728C136.709 87.6511 124.717 95.6374 121.034 114.812C118.911 125.866 119.91 138.47 124.003 152.275C129.097 169.455 139.03 188.571 153.527 209.092C159.631 217.695 164.34 227.206 167.481 237.275C174.494 259.882 175.486 290.938 140.388 310.504L140.839 311.312Z" fill="#B0AFE8" fill-opacity="0.24"/>
<path d="M170.309 225.662C183.03 218.571 182.676 207.333 180.139 199.154C179.014 195.546 177.327 192.139 175.141 189.057C163.692 172.852 162.658 162.326 163.806 156.348C165.053 149.857 169.053 147.192 169.093 147.166L168.589 146.391C168.411 146.506 164.218 149.3 162.897 156.174C161.178 165.124 165.043 176.368 174.385 189.591C176.515 192.593 178.159 195.913 179.255 199.427C181.691 207.28 182.038 218.065 169.859 224.854L170.309 225.662Z" fill="#B0AFE8" fill-opacity="0.24"/>
<path d="M113.076 122.961L113.526 122.153C101.347 115.364 101.694 104.579 104.13 96.7267C105.226 93.2121 106.869 89.8924 109 86.89C118.342 73.6667 122.207 62.4234 120.487 53.4726C119.167 46.5987 114.974 43.8049 114.796 43.6895L114.291 44.4647C114.332 44.4914 118.352 47.1912 119.586 53.6836C120.721 59.6577 119.675 70.1754 108.244 86.356C106.058 89.4378 104.371 92.8452 103.246 96.4524C100.709 104.631 100.355 115.87 113.076 122.961Z" fill="white" fill-opacity="0.24"/>
<path d="M85.9153 76.9296C86.9108 78.4568 88.1974 79.7729 89.7017 80.8027C91.2059 81.8325 92.8983 82.5558 94.6822 82.9314C96.4661 83.307 98.3065 83.3275 100.098 82.9917C101.89 82.6559 103.598 81.9703 105.125 80.9742C106.652 79.9781 107.967 78.691 108.997 77.1864C110.026 75.6817 110.749 73.9891 111.123 72.205C111.498 70.421 111.518 68.5806 111.182 66.789C110.845 64.9973 110.159 63.2895 109.162 61.7631C104.974 55.3435 83.8889 48.424 83.8889 48.424C83.8889 48.424 81.7271 70.5101 85.9153 76.9296Z" fill="#B8B4FF"/>
<path d="M91.0041 33.9062C91.9997 35.4334 93.2863 36.7494 94.7905 37.7792C96.2948 38.809 97.9872 39.5324 99.7711 39.908C101.555 40.2836 103.395 40.3041 105.187 39.9682C106.979 39.6324 108.687 38.9469 110.214 37.9508C111.741 36.9547 113.056 35.6676 114.085 34.1629C115.115 32.6583 115.837 30.9656 116.212 29.1816C116.587 27.3976 116.607 25.5572 116.271 23.7655C115.934 21.9739 115.248 20.266 114.251 18.7396C110.063 12.3201 88.9778 5.40051 88.9778 5.40051C88.9778 5.40051 86.816 27.4867 91.0041 33.9062Z" fill="#BAB6FF"/>
<path d="M113.373 191.528C116.629 191.533 119.79 190.43 122.336 188.4C124.882 186.37 126.661 183.535 127.382 180.36C128.102 177.184 127.72 173.858 126.299 170.929C124.879 167.999 122.503 165.64 119.563 164.24C112.578 160.911 91.6257 165.784 90.7368 165.993L90.175 166.125L90.4263 166.645C90.8238 167.467 100.242 186.806 107.228 190.134C109.147 191.051 111.247 191.527 113.373 191.528ZM112.206 164.006C115.048 164.006 117.538 164.3 119.165 165.075C122.378 166.605 124.851 169.349 126.04 172.703C127.23 176.056 127.038 179.745 125.508 182.957C123.978 186.169 121.234 188.642 117.881 189.832C114.527 191.021 110.839 190.83 107.626 189.299C101.549 186.404 93.096 169.926 91.5177 166.765C94.0431 166.204 104.436 164.006 112.206 164.006Z" fill="white" fill-opacity="0.24"/>
<path d="M141.655 64.196C140.308 65.424 139.217 66.9052 138.442 68.5551C137.668 70.205 137.226 71.9912 137.142 73.8119C137.058 75.6325 137.334 77.4518 137.953 79.166C138.572 80.8801 139.523 82.4556 140.751 83.8023C141.979 85.1491 143.46 86.2408 145.11 87.0151C146.76 87.7894 148.546 88.2311 150.367 88.3151C152.187 88.3991 154.007 88.1236 155.721 87.5045C157.435 86.8854 159.01 85.9347 160.357 84.7067C166.021 79.5423 169.466 57.6195 169.466 57.6195C169.466 57.6195 147.319 59.0316 141.655 64.196Z" fill="#8C85FF"/>
<path d="M174.039 122.486C171.319 124.966 169.695 128.425 169.526 132.102C169.356 135.778 170.654 139.372 173.134 142.092C175.614 144.812 179.073 146.435 182.75 146.605C186.427 146.774 190.021 145.476 192.74 142.996C198.404 137.832 201.849 115.909 201.849 115.909C201.849 115.909 179.702 117.321 174.039 122.486Z" fill="#BAB6FF"/>
<path d="M137.74 130.661C142.373 130.661 151.23 126.274 151.637 126.072L152.153 125.814L151.789 125.366C151.478 124.983 144.126 115.975 139.991 115.08C137.938 114.636 135.794 115.025 134.028 116.162C132.263 117.299 131.021 119.091 130.577 121.143C130.133 123.195 130.522 125.34 131.659 127.106C132.796 128.871 134.588 130.112 136.64 130.557C137.002 130.63 137.371 130.665 137.74 130.661ZM150.697 125.499C148.515 126.54 140.16 130.372 136.836 129.652C135.024 129.259 133.443 128.162 132.44 126.603C131.437 125.045 131.094 123.151 131.486 121.34C131.878 119.528 132.974 117.946 134.532 116.942C136.09 115.938 137.983 115.593 139.795 115.984C143.12 116.704 149.141 123.648 150.697 125.499Z" fill="white" fill-opacity="0.24"/>
<path d="M199.62 273.154C198.646 271.434 197.028 270.173 195.124 269.645C193.219 269.118 191.183 269.369 189.463 270.342C187.743 271.315 186.48 272.932 185.952 274.836C185.423 276.74 185.672 278.776 186.644 280.497C188.672 284.08 199.741 288.504 199.741 288.504C199.741 288.504 201.648 276.737 199.62 273.154Z" fill="#8E87FF"/>
<path d="M211.636 239.505C214.829 239.454 218.015 239.179 221.17 238.683L221.74 238.59L221.525 238.055C221.342 237.597 216.994 226.812 213.311 224.73C212.406 224.218 211.409 223.89 210.377 223.763C209.345 223.637 208.298 223.715 207.296 223.993C206.295 224.271 205.357 224.744 204.538 225.385C203.719 226.025 203.034 226.82 202.522 227.725C202.011 228.63 201.682 229.627 201.556 230.659C201.429 231.691 201.508 232.738 201.786 233.74C202.064 234.742 202.537 235.679 203.177 236.498C203.817 237.317 204.613 238.002 205.518 238.514C206.841 239.262 209.171 239.505 211.636 239.505ZM220.442 237.857C218.05 238.203 208.934 239.382 205.973 237.709C204.359 236.796 203.173 235.28 202.677 233.493C202.181 231.706 202.415 229.795 203.328 228.181C204.24 226.566 205.757 225.381 207.544 224.885C209.331 224.388 211.241 224.622 212.856 225.535C215.817 227.209 219.506 235.628 220.442 237.857Z" fill="#B0AFE8" fill-opacity="0.24"/>
<circle cx="241.937" cy="173.774" r="173.454" fill="#B0AFE8" fill-opacity="0.24"/>
<circle cx="98.9191" cy="156.129" r="10.6147" fill="#71D5FF" fill-opacity="0.24"/>
<circle cx="241.919" cy="156.129" r="10.6147" fill="#71D5FF" fill-opacity="0.24"/>
<mask id="mask0_0:268" style="mask-type:alpha" maskUnits="userSpaceOnUse" x="68" y="0" width="348" height="348">
<circle cx="241.937" cy="173.774" r="173.454" fill="#B0AFE8" fill-opacity="0.24"/>
</mask>
<g mask="url(#mask0_0:268)">
<path d="M420.944 325.187L224.152 358.74C224.152 358.74 210.188 300.914 233.676 296.225C257.165 291.536 259.04 318.583 282.39 276.973C305.741 235.363 341.982 231.236 350.32 252.05C358.658 272.864 347.976 292.473 372.001 282.904C396.025 273.334 434.307 281.175 420.944 325.187Z" fill="#6C63FF" fill-opacity="0.38"/>
<path d="M293.545 351.411L292.871 351.384C294.443 312.309 302.626 287.202 309.215 273.022C316.369 257.624 323.262 251.391 323.331 251.33L323.779 251.834C323.711 251.894 316.898 258.066 309.802 273.359C303.25 287.48 295.111 312.483 293.545 351.411Z" fill="#F2F2F2"/>
<path d="M365.797 351.492L365.149 351.303C372.946 324.544 391.304 307.649 391.489 307.482L391.942 307.981C391.759 308.147 373.538 324.923 365.797 351.492Z" fill="#F2F2F2"/>
<path d="M228.542 351.444L227.874 351.351C230.519 332.275 225.741 317.474 221.267 308.418C216.423 298.611 210.895 293.255 210.84 293.202L211.307 292.716C211.363 292.769 216.976 298.208 221.872 308.119C226.388 317.261 231.211 332.198 228.542 351.444Z" fill="#F2F2F2"/>
<path d="M41.559 266.874L169.26 334.771C169.26 334.771 192.034 298.182 176.948 289.607C161.862 281.033 154.412 299.207 147.83 265.272C141.248 231.336 117.263 220.244 106.788 232.659C96.313 245.075 99.1933 260.994 84.85 248.941C70.5067 236.888 42.3929 233.561 41.559 266.874Z" fill="#6C63FF" fill-opacity="0.38"/>
<path d="M107.561 301.977L108.001 302.189C120.286 276.659 123.59 257.815 124.198 246.503C124.859 234.221 122.569 227.889 122.546 227.826L122.088 227.996C122.111 228.058 124.37 234.323 123.708 246.519C123.097 257.781 119.799 276.543 107.561 301.977Z" fill="#F2F2F2"/>
<path d="M61.3149 277.455L61.7932 277.555C65.9073 257.786 59.9096 240.734 59.8485 240.564L59.3888 240.73C59.4493 240.898 65.3998 257.827 61.3149 277.455Z" fill="#F2F2F2"/>
<path d="M149.131 324.106L149.59 324.274C154.386 311.172 162.476 303.329 168.418 299.057C174.852 294.432 180.21 292.886 180.263 292.871L180.13 292.401C180.076 292.416 174.636 293.986 168.133 298.661C162.135 302.973 153.969 310.887 149.131 324.106Z" fill="#F2F2F2"/>
</g>
<rect x="294.545" y="62.8818" width="166.255" height="67.0298" rx="8" fill="white"/>
<rect x="295.045" y="63.3818" width="165.255" height="66.0298" rx="7.5" stroke="#B0AFE8" stroke-opacity="0.24"/>
<circle cx="323.858" cy="86.1434" r="10.2534" fill="#71D5FF" fill-opacity="0.24"/>
<rect x="352.964" y="80.8513" width="83.0191" height="5.29209" rx="2.64605" fill="#71D5FF" fill-opacity="0.24"/>
<rect x="352.964" y="93.7507" width="58.2127" height="5.29209" rx="2.64605" fill="#71D5FF" fill-opacity="0.24"/>
<rect x="352.964" y="106.65" width="67.4738" height="5.29209" rx="2.64605" fill="#71D5FF" fill-opacity="0.24"/>
<rect x="0.203613" y="109.296" width="166.255" height="67.0298" rx="8" fill="white"/>
<rect x="0.703613" y="109.796" width="165.255" height="66.0298" rx="7.5" stroke="#B0AFE8" stroke-opacity="0.24"/>
<circle cx="29.5165" cy="132.557" r="10.2534" fill="#71D5FF" fill-opacity="0.24"/>
<rect x="58.6228" y="127.265" width="83.0191" height="5.29209" rx="2.64605" fill="#71D5FF" fill-opacity="0.24"/>
<rect x="58.6228" y="140.165" width="58.2127" height="5.29209" rx="2.64605" fill="#71D5FF" fill-opacity="0.24"/>
<rect x="58.6228" y="153.064" width="67.4738" height="5.29209" rx="2.64605" fill="#71D5FF" fill-opacity="0.24"/>
</svg>
