<svg width="585" height="541" viewBox="0 0 585 541" fill="none" xmlns="http://www.w3.org/2000/svg">
<path d="M65.7646 82.8135L80.7724 108.808L95.7803 82.8135H65.7646Z" stroke="#71D5FF" stroke-opacity="0.24" stroke-width="5"/>
<circle cx="155.515" cy="172.88" r="20.4466" stroke="#71D5FF" stroke-opacity="0.24" stroke-width="5"/>
<circle cx="480.439" cy="226.204" r="15.5269" stroke="#71D5FF" stroke-opacity="0.24" stroke-width="5"/>
<circle cx="408.73" cy="474.786" r="15.5269" stroke="#71D5FF" stroke-opacity="0.24" stroke-width="5"/>
<path d="M43.5412 334.035L66.3432 294.541L89.1453 334.035H43.5412Z" stroke="#71D5FF" stroke-opacity="0.24" stroke-width="5"/>
<path d="M545.189 340.659L561.929 369.654L578.669 340.659H545.189Z" stroke="#71D5FF" stroke-opacity="0.24" stroke-width="3"/>
<path d="M62.9289 478.389L79.2528 450.115L95.5768 478.389H62.9289Z" stroke="#71D5FF" stroke-opacity="0.24" stroke-width="5"/>
<circle cx="16.1139" cy="205.291" r="13.6408" stroke="#71D5FF" stroke-opacity="0.24" stroke-width="3"/>
<rect x="545.916" y="102.217" width="32.0266" height="32.0266" stroke="#71D5FF" stroke-opacity="0.24" stroke-width="3"/>
<rect x="224.062" y="1.80249" width="32.0266" height="32.0266" stroke="#71D5FF" stroke-opacity="0.24" stroke-width="3"/>
<path d="M313.116 74.5693L514.875 424.026H111.357L313.116 74.5693Z" fill="#71D5FF" fill-opacity="0.24"/>
<path d="M249.156 266.517C250.875 266.053 252.673 266.459 254.152 267.646C255.631 268.832 256.671 270.702 257.044 272.843C257.416 274.985 257.09 277.223 256.137 279.065C255.184 280.907 253.683 282.202 251.963 282.666C248.382 283.631 238.888 277.738 238.888 277.738C238.888 277.738 245.574 267.482 249.156 266.517Z" fill="#8C85FF"/>
<path d="M354.535 421.45C340.174 411.481 331.235 397.871 327.964 380.998C325.535 368.47 326.233 354.373 330.038 339.098C332.859 327.835 337.088 317.197 342.57 307.575C371.652 256.314 374.277 222.912 371.358 203.917C368.157 183.09 357.759 174.441 357.654 174.356L358.103 173.496C358.21 173.583 368.883 182.434 372.16 203.683C374.05 215.934 373.161 229.902 369.518 245.201C364.985 264.241 356.144 285.426 343.242 308.167C337.81 317.701 333.62 328.242 330.824 339.401C324.583 364.454 323.7 398.871 354.936 420.555L354.535 421.45Z" fill="white" fill-opacity="0.24"/>
<path d="M328.307 326.531C316.986 318.672 317.301 306.217 319.559 297.153C320.561 293.156 322.062 289.379 324.008 285.964C334.196 268.005 335.117 256.339 334.095 249.715C332.985 242.522 329.426 239.568 329.39 239.539L329.839 238.68C329.997 238.808 333.729 241.904 334.904 249.522C336.434 259.441 332.994 271.901 324.68 286.556C322.784 289.883 321.321 293.562 320.346 297.457C318.178 306.159 317.869 318.111 328.708 325.635L328.307 326.531Z" fill="white" fill-opacity="0.24"/>
<path d="M379.243 212.715L378.842 211.819C389.681 204.295 389.372 192.342 387.204 183.641C386.229 179.746 384.766 176.067 382.87 172.74C374.556 158.085 371.116 145.625 372.646 135.706C373.821 128.088 377.553 124.991 377.711 124.864L378.161 125.723C378.125 125.752 374.547 128.744 373.449 135.939C372.438 142.56 373.369 154.216 383.542 172.148C385.488 175.563 386.989 179.339 387.991 183.337C390.249 192.401 390.564 204.856 379.243 212.715Z" fill="white" fill-opacity="0.24"/>
<path d="M403.414 161.701C402.528 163.394 401.383 164.852 400.044 165.993C398.706 167.135 397.199 167.936 395.612 168.352C394.024 168.769 392.386 168.791 390.792 168.419C389.197 168.047 387.677 167.287 386.318 166.183C384.96 165.08 383.789 163.653 382.873 161.986C381.957 160.318 381.314 158.442 380.98 156.465C380.646 154.488 380.629 152.449 380.928 150.463C381.228 148.477 381.838 146.585 382.725 144.893C386.452 137.779 405.217 130.11 405.217 130.11C405.217 130.11 407.141 154.587 403.414 161.701Z" fill="#635BE8"/>
<path d="M398.885 114.021C397.999 115.714 396.854 117.172 395.515 118.314C394.177 119.455 392.671 120.257 391.083 120.673C389.495 121.089 387.858 121.112 386.263 120.74C384.668 120.367 383.148 119.608 381.789 118.504C380.431 117.4 379.26 115.973 378.344 114.306C377.428 112.638 376.785 110.763 376.451 108.786C376.117 106.808 376.1 104.769 376.399 102.783C376.699 100.798 377.309 98.905 378.196 97.2134C381.924 90.0991 400.689 82.4307 400.689 82.4307C400.689 82.4307 402.612 106.907 398.885 114.021Z" fill="#635BE8"/>
<path d="M378.978 288.702C376.08 288.708 373.267 287.485 371.001 285.236C368.736 282.987 367.152 279.844 366.511 276.325C365.87 272.806 366.209 269.12 367.474 265.874C368.739 262.627 370.853 260.013 373.469 258.461C379.686 254.772 398.332 260.172 399.123 260.404L399.623 260.551L399.4 261.126C399.046 262.037 390.664 283.469 384.447 287.158C382.739 288.174 380.87 288.702 378.978 288.702ZM380.016 258.202C377.487 258.202 375.271 258.528 373.823 259.387C370.964 261.083 368.763 264.123 367.705 267.839C366.646 271.556 366.817 275.644 368.178 279.204C369.54 282.764 371.982 285.504 374.966 286.822C377.951 288.141 381.234 287.928 384.092 286.233C389.501 283.024 397.024 264.763 398.428 261.259C396.181 260.638 386.932 258.202 380.016 258.202Z" fill="white" fill-opacity="0.24"/>
<path d="M353.808 147.589C355.007 148.95 355.978 150.592 356.667 152.42C357.356 154.249 357.75 156.228 357.824 158.246C357.899 160.264 357.654 162.28 357.103 164.18C356.552 166.079 355.706 167.825 354.613 169.318C353.52 170.81 352.202 172.02 350.734 172.878C349.265 173.736 347.675 174.226 346.055 174.319C344.435 174.412 342.816 174.107 341.29 173.421C339.765 172.735 338.363 171.681 337.164 170.32C332.124 164.597 329.058 140.301 329.058 140.301C329.058 140.301 348.767 141.866 353.808 147.589Z" fill="#8C85FF"/>
<path d="M324.989 212.188C327.409 214.936 328.854 218.77 329.005 222.844C329.156 226.919 328 230.902 325.793 233.916C323.586 236.93 320.508 238.729 317.236 238.917C313.963 239.105 310.765 237.667 308.345 234.918C303.304 229.195 300.238 204.9 300.238 204.9C300.238 204.9 319.948 206.465 324.989 212.188Z" fill="#6A61F5"/>
<path d="M357.292 221.248C353.17 221.248 345.287 216.386 344.925 216.162L344.465 215.876L344.789 215.38C345.066 214.955 351.609 204.973 355.29 203.98C357.116 203.488 359.025 203.919 360.596 205.179C362.167 206.44 363.272 208.425 363.667 210.7C364.063 212.974 363.716 215.351 362.704 217.308C361.692 219.264 360.098 220.64 358.271 221.132C357.949 221.213 357.621 221.252 357.292 221.248ZM345.762 215.527C347.703 216.681 355.139 220.928 358.097 220.13C359.709 219.694 361.116 218.478 362.009 216.751C362.902 215.024 363.207 212.925 362.858 210.918C362.509 208.91 361.534 207.157 360.148 206.044C358.761 204.931 357.076 204.549 355.464 204.983C352.505 205.781 347.146 213.476 345.762 215.527Z" fill="white" fill-opacity="0.24"/>
<path d="M302.222 379.162C303.089 377.257 304.529 375.858 306.224 375.274C307.919 374.69 309.73 374.967 311.261 376.046C312.792 377.125 313.916 378.916 314.386 381.026C314.857 383.136 314.635 385.393 313.77 387.3C311.966 391.271 302.115 396.173 302.115 396.173C302.115 396.173 300.417 383.133 302.222 379.162Z" fill="#8E87FF"/>
<path d="M291.528 341.872C288.686 341.815 285.851 341.51 283.044 340.961L282.537 340.858L282.728 340.264C282.891 339.757 286.759 327.805 290.037 325.498C290.843 324.93 291.73 324.567 292.649 324.426C293.567 324.286 294.499 324.373 295.39 324.681C296.282 324.989 297.116 325.513 297.845 326.223C298.574 326.933 299.184 327.814 299.639 328.817C300.094 329.82 300.387 330.925 300.499 332.069C300.612 333.213 300.542 334.373 300.295 335.483C300.047 336.593 299.626 337.632 299.056 338.54C298.487 339.447 297.779 340.206 296.973 340.774C295.796 341.603 293.722 341.872 291.528 341.872ZM283.691 340.045C285.82 340.429 293.933 341.736 296.568 339.881C298.005 338.87 299.06 337.189 299.501 335.209C299.943 333.229 299.735 331.111 298.922 329.322C298.11 327.533 296.76 326.219 295.17 325.669C293.58 325.119 291.879 325.378 290.443 326.39C287.808 328.245 284.524 337.575 283.691 340.045Z" fill="white" fill-opacity="0.24"/>
<circle cx="162.452" cy="263.936" r="10.6147" fill="#71D5FF" fill-opacity="0.24"/>
<path d="M481.353 423.859H343.626C343.626 423.859 340.834 372.871 357.352 372.292C373.87 371.712 372.009 394.889 392.715 363.021C413.42 331.153 438.546 332.892 441.803 351.722C445.06 370.553 435.522 385.618 452.97 380.983C470.419 376.348 495.545 388.515 481.353 423.859Z" fill="#6C63FF" fill-opacity="0.38"/>
<path d="M410.165 423.871L409.7 423.848C410.784 390.278 416.43 368.708 420.975 356.526C425.911 343.298 430.666 337.943 430.714 337.89L431.023 338.323C430.976 338.375 426.276 343.677 421.38 356.815C416.86 368.947 411.245 390.427 410.165 423.871Z" fill="#F2F2F2"/>
<path d="M460.012 423.94L459.565 423.779C464.944 400.789 477.609 386.275 477.737 386.131L478.05 386.56C477.923 386.702 465.352 401.114 460.012 423.94Z" fill="#F2F2F2"/>
<path d="M365.319 423.9L364.858 423.82C366.683 407.431 363.386 394.716 360.3 386.935C356.957 378.51 353.144 373.909 353.106 373.863L353.428 373.445C353.467 373.491 357.339 378.163 360.717 386.678C363.832 394.532 367.16 407.365 365.319 423.9Z" fill="#F2F2F2"/>
<path d="M197.084 423.889H284.292C284.292 423.889 286.059 391.604 275.6 391.237C265.141 390.87 266.32 405.545 253.209 385.367C240.098 365.188 224.189 366.289 222.126 378.212C220.064 390.136 226.104 399.675 215.055 396.74C204.007 393.805 188.098 401.509 197.084 423.889Z" fill="#6C63FF" fill-opacity="0.38"/>
<path d="M242.16 423.897L242.454 423.882C241.768 402.625 238.193 388.968 235.314 381.254C232.189 372.878 229.178 369.487 229.148 369.454L228.952 369.728C228.982 369.761 231.958 373.118 235.058 381.437C237.92 389.119 241.476 402.72 242.16 423.897Z" fill="#F2F2F2"/>
<path d="M210.597 423.94L210.88 423.838C207.474 409.281 199.454 400.091 199.374 400L199.176 400.271C199.256 400.362 207.215 409.487 210.597 423.94Z" fill="#F2F2F2"/>
<path d="M270.556 423.914L270.848 423.864C269.692 413.487 271.78 405.435 273.734 400.508C275.85 395.174 278.265 392.26 278.289 392.232L278.085 391.967C278.061 391.996 275.609 394.954 273.47 400.346C271.497 405.319 269.39 413.445 270.556 423.914Z" fill="#F2F2F2"/>
<rect x="449.463" y="75.0033" width="30.0266" height="30.0266" transform="rotate(45 449.463 75.0033)" stroke="#71D5FF" stroke-opacity="0.24" stroke-width="5"/>
</svg>
