<svg width="1440" height="300" viewBox="0 0 1440 300" fill="none" xmlns="http://www.w3.org/2000/svg">
<path d="M290.276 286.706C156.426 321.97 0 275.498 0 275.498V136.308C0 136.308 174.423 197.56 290.276 197.516C458.352 197.452 533.195 55.8171 700.808 68.3C828.515 77.8109 879.686 188.312 1007.67 183.914C1157.14 178.778 1194.25 -3.93927 1343.75 0.291587C1382.66 1.39279 1442.16 16.1603 1442.16 16.1603V124.183C1442.16 124.183 1396.04 98.2881 1363.88 88.7029C1221.87 46.3839 1155.85 219.855 1007.67 219.455C882.191 219.117 826.269 126.386 700.808 124.183C528.406 121.157 457.015 242.777 290.276 286.706Z" fill="url(#paint0_linear_0:433)"/>
<defs>
<linearGradient id="paint0_linear_0:433" x1="222.271" y1="-128.925" x2="1401.08" y2="270.058" gradientUnits="userSpaceOnUse">
<stop stop-color="#5E96E9"/>
<stop offset="0.26639" stop-color="#66EBFD"/>
<stop offset="0.5" stop-color="#EBDC8B"/>
<stop offset="1" stop-color="#F83FB9"/>
</linearGradient>
</defs>
</svg>
