<svg width="369" height="321" viewBox="0 0 369 321" fill="none" xmlns="http://www.w3.org/2000/svg">
<rect x="43.8928" y="37.7996" width="282.368" height="282.368" fill="#76EAEA" fill-opacity="0.24"/>
<rect x="73.4915" y="11.4248" width="278.368" height="278.368" stroke="#76EAEA" stroke-opacity="0.24" stroke-width="4"/>
<path d="M212.245 195.814C213.965 195.441 215.762 195.767 217.241 196.72C218.721 197.673 219.761 199.174 220.133 200.894C220.506 202.614 220.18 204.411 219.227 205.89C218.274 207.37 216.773 208.41 215.053 208.782C211.472 209.557 201.977 204.825 201.977 204.825C201.977 204.825 208.664 196.589 212.245 195.814Z" fill="#8C85FF"/>
<path d="M317.624 320.232C303.264 312.226 294.324 301.297 291.053 287.747C288.624 277.687 289.322 266.366 293.127 254.099C295.948 245.055 300.177 236.512 305.659 228.785C334.742 187.62 337.367 160.797 334.447 145.543C331.247 128.819 320.848 121.873 320.743 121.804L321.192 121.114C321.3 121.184 331.972 128.291 335.25 145.355C337.139 155.193 336.25 166.411 332.608 178.696C328.074 193.986 319.234 210.998 306.332 229.261C300.9 236.917 296.709 245.381 293.914 254.343C287.673 274.462 286.79 302.1 318.025 319.513L317.624 320.232Z" fill="#B0AFE8" fill-opacity="0.24"/>
<path d="M291.397 244.007C280.076 237.697 280.391 227.695 282.649 220.416C283.65 217.206 285.151 214.173 287.097 211.431C297.285 197.009 298.206 187.641 297.184 182.321C296.075 176.544 292.515 174.173 292.479 174.15L292.928 173.459C293.086 173.562 296.818 176.048 297.993 182.166C299.523 190.132 296.083 200.137 287.77 211.906C285.874 214.578 284.411 217.532 283.435 220.66C281.268 227.648 280.959 237.246 291.798 243.289L291.397 244.007Z" fill="#B0AFE8" fill-opacity="0.24"/>
<path d="M342.332 152.608L341.931 151.889C352.77 145.847 352.461 136.248 350.294 129.261C349.318 126.133 347.855 123.178 345.959 120.506C337.646 108.738 334.206 98.7322 335.736 90.7664C336.911 84.6489 340.643 82.1625 340.801 82.0598L341.25 82.7497C341.214 82.7735 337.637 85.1762 336.538 90.9542C335.528 96.2708 336.459 105.631 346.632 120.031C348.578 122.774 350.079 125.806 351.08 129.017C353.338 136.295 353.653 146.297 342.332 152.608Z" fill="white" fill-opacity="0.24"/>
<path d="M366.504 111.642C365.618 113.001 364.473 114.172 363.134 115.089C361.795 116.005 360.289 116.649 358.702 116.983C357.114 117.318 355.476 117.336 353.882 117.037C352.287 116.738 350.767 116.128 349.408 115.242C348.049 114.355 346.879 113.21 345.963 111.871C345.047 110.532 344.403 109.025 344.07 107.437C343.736 105.85 343.718 104.212 344.018 102.617C344.317 101.023 344.928 99.503 345.815 98.1445C349.542 92.4314 368.307 86.2733 368.307 86.2733C368.307 86.2733 370.231 105.929 366.504 111.642Z" fill="#B8B4FF"/>
<path d="M361.975 73.3532C361.089 74.7123 359.944 75.8835 358.605 76.8C357.267 77.7165 355.76 78.3602 354.173 78.6945C352.585 79.0288 350.947 79.047 349.353 78.7481C347.758 78.4493 346.238 77.8392 344.879 76.9527C343.521 76.0662 342.35 74.9207 341.434 73.5817C340.518 72.2426 339.875 70.7362 339.541 69.1485C339.207 67.5608 339.19 65.9229 339.489 64.3284C339.789 62.7339 340.399 61.214 341.286 59.8556C345.013 54.1425 363.778 47.9844 363.778 47.9844C363.778 47.9844 365.702 67.6401 361.975 73.3532Z" fill="#BAB6FF"/>
<path d="M342.067 213.629C339.17 213.634 336.357 212.652 334.091 210.846C331.825 209.04 330.241 206.516 329.6 203.69C328.959 200.864 329.299 197.904 330.564 195.297C331.828 192.69 333.942 190.591 336.558 189.345C342.775 186.382 361.422 190.719 362.213 190.905L362.713 191.023L362.489 191.485C362.135 192.216 353.754 209.427 347.536 212.389C345.829 213.206 343.96 213.629 342.067 213.629ZM343.106 189.137C340.577 189.137 338.361 189.398 336.913 190.088C334.054 191.45 331.853 193.891 330.794 196.876C329.736 199.86 329.906 203.143 331.268 206.002C332.63 208.861 335.072 211.061 338.056 212.12C341.04 213.179 344.323 213.008 347.182 211.646C352.591 209.07 360.113 194.405 361.518 191.592C359.27 191.093 350.021 189.137 343.106 189.137Z" fill="white" fill-opacity="0.24"/>
<path d="M316.898 100.31C318.096 101.403 319.068 102.721 319.757 104.189C320.446 105.657 320.839 107.247 320.914 108.867C320.989 110.488 320.743 112.107 320.192 113.632C319.641 115.158 318.795 116.56 317.703 117.759C316.61 118.957 315.291 119.929 313.823 120.618C312.355 121.307 310.765 121.7 309.145 121.775C307.525 121.849 305.905 121.604 304.38 121.053C302.854 120.502 301.452 119.656 300.254 118.563C295.213 113.967 292.147 94.457 292.147 94.457C292.147 94.457 311.857 95.7136 316.898 100.31Z" fill="#8C85FF"/>
<path d="M288.078 152.185C290.499 154.392 291.943 157.471 292.094 160.743C292.245 164.015 291.09 167.213 288.883 169.634C286.676 172.054 283.598 173.499 280.325 173.65C277.053 173.801 273.855 172.646 271.434 170.439C266.394 165.843 263.328 146.332 263.328 146.332C263.328 146.332 283.038 147.589 288.078 152.185Z" fill="#BAB6FF"/>
<path d="M320.382 159.46C316.259 159.46 308.376 155.557 308.014 155.376L307.555 155.147L307.879 154.748C308.155 154.408 314.699 146.391 318.379 145.594C320.205 145.199 322.114 145.545 323.685 146.557C325.256 147.569 326.361 149.164 326.757 150.99C327.152 152.817 326.806 154.725 325.794 156.297C324.782 157.868 323.187 158.972 321.361 159.368C321.038 159.433 320.71 159.464 320.382 159.46ZM308.851 154.867C310.792 155.793 318.228 159.204 321.187 158.563C322.799 158.213 324.206 157.237 325.099 155.85C325.991 154.462 326.297 152.777 325.948 151.165C325.599 149.553 324.624 148.145 323.237 147.251C321.85 146.358 320.166 146.051 318.553 146.399C315.594 147.04 310.235 153.22 308.851 154.867Z" fill="white" fill-opacity="0.24"/>
<path d="M265.312 286.273C266.179 284.743 267.618 283.62 269.313 283.151C271.008 282.681 272.82 282.904 274.351 283.771C275.881 284.637 277.005 286.075 277.476 287.77C277.946 289.464 277.725 291.276 276.86 292.808C275.055 295.997 265.204 299.934 265.204 299.934C265.204 299.934 263.507 289.462 265.312 286.273Z" fill="#8E87FF"/>
<path d="M254.618 256.327C251.776 256.281 248.941 256.037 246.133 255.596L245.626 255.513L245.817 255.036C245.98 254.629 249.849 245.031 253.127 243.178C253.933 242.723 254.82 242.43 255.738 242.318C256.657 242.205 257.588 242.275 258.48 242.522C259.371 242.77 260.206 243.191 260.935 243.76C261.664 244.33 262.273 245.038 262.729 245.844C263.184 246.649 263.476 247.536 263.589 248.455C263.701 249.373 263.632 250.305 263.384 251.197C263.137 252.088 262.716 252.922 262.146 253.651C261.576 254.38 260.868 254.99 260.063 255.445C258.885 256.111 256.811 256.327 254.618 256.327ZM246.781 254.86C248.91 255.169 257.022 256.218 259.657 254.729C261.094 253.917 262.149 252.567 262.591 250.977C263.033 249.386 262.824 247.686 262.012 246.249C261.2 244.812 259.85 243.757 258.26 243.316C256.67 242.874 254.969 243.082 253.532 243.894C250.897 245.384 247.614 252.877 246.781 254.86Z" fill="#B0AFE8" fill-opacity="0.24"/>
<circle cx="68.6174" cy="236.682" r="10.6147" fill="#71D5FF" fill-opacity="0.24"/>
<path d="M316.751 320.167H179.024C179.024 320.167 176.232 279.221 192.75 278.756C209.268 278.29 207.407 296.902 228.113 271.311C248.818 245.72 273.944 247.116 277.201 262.238C280.458 277.36 270.92 289.457 288.368 285.735C305.817 282.013 330.943 291.784 316.751 320.167Z" fill="#63C7FF" fill-opacity="0.38"/>
<path d="M245.562 320.176L245.098 320.158C246.182 293.199 251.828 275.878 256.373 266.095C261.309 255.472 266.064 251.172 266.112 251.129L266.421 251.477C266.374 251.519 261.674 255.777 256.778 266.327C252.258 276.069 246.643 293.319 245.562 320.176Z" fill="#F2F2F2"/>
<path d="M295.41 320.232L294.963 320.102C300.342 301.641 313.007 289.985 313.135 289.869L313.448 290.213C313.321 290.328 300.75 301.902 295.41 320.232Z" fill="#F2F2F2"/>
<path d="M200.717 320.199L200.256 320.135C202.08 306.974 198.784 296.763 195.698 290.515C192.355 283.749 188.542 280.054 188.504 280.018L188.826 279.682C188.865 279.719 192.737 283.471 196.115 290.309C199.23 296.615 202.558 306.921 200.717 320.199Z" fill="#F2F2F2"/>
<path d="M55.6131 320.191H142.821C142.821 320.191 144.589 294.264 134.13 293.969C123.671 293.675 124.849 305.46 111.739 289.255C98.6279 273.051 82.7183 273.935 80.656 283.51C78.5936 293.086 84.6334 300.746 73.585 298.389C62.5367 296.032 46.6271 302.219 55.6131 320.191Z" fill="#6C63FF" fill-opacity="0.38"/>
<path d="M100.689 320.197L100.984 320.185C100.297 303.115 96.7222 292.147 93.844 285.953C90.719 279.226 87.7076 276.503 87.6775 276.477L87.4817 276.697C87.5114 276.723 90.4877 279.419 93.5877 286.1C96.45 292.268 100.005 303.191 100.689 320.197Z" fill="#F2F2F2"/>
<path d="M69.1266 320.232L69.4094 320.15C66.0037 308.46 57.9837 301.079 57.903 301.006L57.7051 301.224C57.7851 301.297 65.745 308.625 69.1266 320.232Z" fill="#F2F2F2"/>
<path d="M129.086 320.211L129.377 320.171C128.222 311.837 130.309 305.372 132.264 301.415C134.38 297.131 136.794 294.792 136.819 294.768L136.615 294.556C136.59 294.579 134.138 296.955 131.999 301.285C130.027 305.278 127.92 311.803 129.086 320.211Z" fill="#F2F2F2"/>
<path d="M143.692 231.02L113.385 177.334L85.6761 213.702L65.7601 190.323L55.3692 162.613L33.7214 190.323L7.74414 147.893" stroke="#C6DDF9" stroke-width="3"/>
<circle cx="6.4953" cy="145.748" r="4.45356" fill="#E0EEFF" stroke="#C6DDF9" stroke-width="3"/>
<circle cx="55.5732" cy="162.86" r="4.45356" fill="#E0EEFF" stroke="#C6DDF9" stroke-width="3"/>
<circle cx="33.4125" cy="189.456" r="4.45356" fill="#E0EEFF" stroke="#C6DDF9" stroke-width="3"/>
<circle cx="65.5378" cy="189.456" r="4.45356" fill="#E0EEFF" stroke="#C6DDF9" stroke-width="3"/>
<circle cx="86.3886" cy="213.373" r="4.45356" fill="#E0EEFF" stroke="#C6DDF9" stroke-width="3"/>
<circle cx="113.372" cy="177.549" r="4.45356" fill="#E0EEFF" stroke="#C6DDF9" stroke-width="3"/>
<circle cx="145.67" cy="233.151" r="4.45356" fill="#E0EEFF" stroke="#C6DDF9" stroke-width="3"/>
<circle cx="204.91" cy="50.5916" r="43.368" fill="#ABE2F9"/>
<path fill-rule="evenodd" clip-rule="evenodd" d="M254.634 44.2359H209.36V0.909051C209.992 0.881724 210.627 0.86792 211.266 0.86792C235.217 0.86792 254.634 20.2844 254.634 44.2359C254.634 44.2359 254.634 44.2359 254.634 44.2359Z" fill="#749EEF"/>
</svg>
