<svg width="467" height="468" viewBox="0 0 467 468" fill="none" xmlns="http://www.w3.org/2000/svg">
<path d="M233.592 1.48914L435.351 350.946H31.8328L233.592 1.48914Z" fill="#71D5FF" fill-opacity="0.24"/>
<path d="M156.631 224.682C158.351 224.31 160.148 224.636 161.627 225.589C163.107 226.541 164.147 228.043 164.519 229.763C164.892 231.482 164.566 233.28 163.613 234.759C162.66 236.238 161.159 237.278 159.439 237.651C155.858 238.426 146.363 233.693 146.363 233.693C146.363 233.693 153.05 225.457 156.631 224.682Z" fill="#8C85FF"/>
<path d="M262.01 349.1C247.65 341.095 238.71 330.165 235.439 316.616C233.01 306.555 233.708 295.235 237.513 282.968C240.334 273.924 244.563 265.381 250.045 257.654C279.128 216.489 281.753 189.665 278.833 174.412C275.633 157.687 265.234 150.741 265.129 150.673L265.578 149.983C265.686 150.052 276.358 157.16 279.636 174.224C281.525 184.062 280.636 195.279 276.994 207.565C272.46 222.855 263.62 239.867 250.718 258.129C245.286 265.785 241.095 274.25 238.3 283.211C232.059 303.33 231.176 330.968 262.411 348.382L262.01 349.1Z" fill="#B0AFE8" fill-opacity="0.24"/>
<path d="M235.783 272.876C224.462 266.565 224.777 256.564 227.035 249.285C228.036 246.074 229.537 243.042 231.483 240.299C241.672 225.878 242.592 216.509 241.571 211.19C240.461 205.413 236.901 203.041 236.866 203.018L237.314 202.328C237.472 202.43 241.204 204.917 242.379 211.034C243.909 219 240.47 229.006 232.156 240.774C230.26 243.446 228.797 246.401 227.821 249.528C225.654 256.517 225.345 266.115 236.184 272.157L235.783 272.876Z" fill="#B0AFE8" fill-opacity="0.24"/>
<path d="M286.718 181.477L286.317 180.758C297.156 174.715 296.847 165.117 294.68 158.129C293.704 155.001 292.241 152.047 290.345 149.375C282.032 137.607 278.592 127.601 280.122 119.635C281.297 113.517 285.029 111.031 285.187 110.928L285.636 111.618C285.6 111.642 282.022 114.045 280.924 119.823C279.914 125.139 280.845 134.5 291.018 148.9C292.964 151.642 294.465 154.675 295.466 157.885C297.724 165.164 298.039 175.166 286.718 181.477Z" fill="white" fill-opacity="0.24"/>
<path d="M310.89 140.511C310.004 141.87 308.859 143.041 307.52 143.957C306.181 144.874 304.675 145.518 303.087 145.852C301.5 146.186 299.862 146.204 298.267 145.906C296.673 145.607 295.153 144.997 293.794 144.11C292.435 143.224 291.264 142.078 290.348 140.739C289.432 139.4 288.789 137.894 288.455 136.306C288.122 134.718 288.104 133.08 288.404 131.486C288.703 129.891 289.314 128.372 290.201 127.013C293.928 121.3 312.693 115.142 312.693 115.142C312.693 115.142 314.617 134.798 310.89 140.511Z" fill="#B8B4FF"/>
<path d="M306.361 102.222C305.475 103.581 304.33 104.752 302.991 105.669C301.652 106.585 300.146 107.229 298.559 107.563C296.971 107.897 295.333 107.916 293.739 107.617C292.144 107.318 290.624 106.708 289.265 105.821C287.906 104.935 286.735 103.789 285.819 102.45C284.904 101.111 284.26 99.6047 283.927 98.017C283.593 96.4293 283.575 94.7915 283.875 93.197C284.174 91.6025 284.785 90.0826 285.672 88.7241C289.399 83.011 308.164 76.8529 308.164 76.8529C308.164 76.8529 310.088 96.5086 306.361 102.222Z" fill="#BAB6FF"/>
<path d="M286.453 242.498C283.556 242.503 280.743 241.521 278.477 239.715C276.211 237.908 274.627 235.385 273.986 232.559C273.345 229.733 273.685 226.773 274.95 224.166C276.214 221.559 278.328 219.459 280.944 218.213C287.161 215.251 305.808 219.587 306.599 219.773L307.099 219.891L306.875 220.354C306.521 221.085 298.14 238.296 291.922 241.258C290.215 242.074 288.346 242.498 286.453 242.498ZM287.492 218.005C284.963 218.005 282.747 218.267 281.299 218.957C278.44 220.318 276.239 222.76 275.18 225.745C274.122 228.729 274.292 232.012 275.654 234.87C277.016 237.729 279.458 239.93 282.442 240.989C285.426 242.047 288.709 241.877 291.568 240.515C296.977 237.938 304.499 223.274 305.904 220.46C303.656 219.961 294.407 218.005 287.492 218.005Z" fill="white" fill-opacity="0.24"/>
<path d="M261.284 129.178C262.482 130.271 263.454 131.589 264.143 133.058C264.832 134.526 265.225 136.116 265.3 137.736C265.375 139.356 265.129 140.975 264.578 142.501C264.027 144.026 263.181 145.428 262.089 146.627C260.996 147.826 259.677 148.797 258.209 149.486C256.741 150.175 255.151 150.568 253.531 150.643C251.911 150.718 250.291 150.473 248.766 149.922C247.24 149.371 245.838 148.525 244.64 147.432C239.599 142.836 236.533 123.325 236.533 123.325C236.533 123.325 256.243 124.582 261.284 129.178Z" fill="#8C85FF"/>
<path d="M232.464 181.054C234.885 183.261 236.329 186.339 236.48 189.611C236.631 192.884 235.476 196.082 233.269 198.502C231.062 200.923 227.984 202.368 224.711 202.519C221.439 202.67 218.241 201.514 215.82 199.307C210.78 194.711 207.714 175.201 207.714 175.201C207.714 175.201 227.423 176.458 232.464 181.054Z" fill="#BAB6FF"/>
<path d="M264.768 188.329C260.645 188.329 252.762 184.425 252.401 184.245L251.941 184.016L252.265 183.617C252.542 183.276 259.085 175.26 262.765 174.463C264.592 174.067 266.5 174.414 268.072 175.426C269.643 176.438 270.747 178.032 271.143 179.859C271.538 181.685 271.192 183.594 270.18 185.165C269.168 186.736 267.573 187.841 265.747 188.236C265.425 188.302 265.097 188.333 264.768 188.329ZM253.237 183.735C255.179 184.662 262.615 188.072 265.573 187.431C267.185 187.081 268.592 186.105 269.485 184.718C270.378 183.331 270.683 181.646 270.334 180.034C269.985 178.421 269.01 177.014 267.623 176.12C266.237 175.226 264.552 174.92 262.939 175.268C259.98 175.908 254.621 182.088 253.237 183.735Z" fill="white" fill-opacity="0.24"/>
<path d="M209.698 315.141C210.565 313.611 212.004 312.488 213.699 312.019C215.394 311.55 217.206 311.773 218.737 312.639C220.267 313.505 221.391 314.944 221.862 316.638C222.332 318.333 222.111 320.145 221.246 321.676C219.441 324.865 209.59 328.802 209.59 328.802C209.59 328.802 207.893 318.33 209.698 315.141Z" fill="#8E87FF"/>
<path d="M199.004 285.195C196.162 285.15 193.327 284.906 190.519 284.464L190.012 284.382L190.203 283.905C190.366 283.497 194.235 273.9 197.513 272.047C198.319 271.591 199.206 271.299 200.124 271.186C201.043 271.074 201.974 271.143 202.866 271.391C203.757 271.638 204.592 272.059 205.321 272.629C206.05 273.199 206.659 273.907 207.115 274.712C207.57 275.518 207.862 276.405 207.975 277.323C208.087 278.242 208.018 279.174 207.77 280.065C207.523 280.957 207.102 281.791 206.532 282.52C205.962 283.249 205.254 283.858 204.449 284.314C203.271 284.98 201.197 285.195 199.004 285.195ZM191.167 283.729C193.296 284.037 201.408 285.087 204.043 283.597C205.48 282.785 206.535 281.435 206.977 279.845C207.419 278.255 207.21 276.554 206.398 275.118C205.586 273.681 204.236 272.626 202.646 272.184C201.056 271.742 199.355 271.951 197.918 272.763C195.283 274.253 192 281.745 191.167 283.729Z" fill="#B0AFE8" fill-opacity="0.24"/>
<circle cx="117.563" cy="267.55" r="10.6147" fill="#71D5FF" fill-opacity="0.24"/>
<path d="M388.829 351.036H251.102C251.102 351.036 248.31 310.09 264.828 309.624C281.346 309.159 279.485 327.771 300.19 302.18C320.896 276.588 346.022 277.984 349.279 293.106C352.536 308.228 342.997 320.326 360.446 316.604C377.894 312.881 403.02 322.653 388.829 351.036Z" fill="#6C63FF" fill-opacity="0.38"/>
<path d="M317.64 351.045L317.175 351.026C318.259 324.068 323.905 306.747 328.451 296.963C333.386 286.341 338.142 282.04 338.19 281.998L338.499 282.346C338.452 282.387 333.752 286.645 328.856 297.196C324.335 306.938 318.72 324.188 317.64 351.045Z" fill="#F2F2F2"/>
<path d="M367.487 351.1L367.041 350.97C372.419 332.509 385.085 320.853 385.212 320.737L385.525 321.082C385.399 321.197 372.828 332.77 367.487 351.1Z" fill="#F2F2F2"/>
<path d="M272.794 351.068L272.333 351.003C274.158 337.843 270.862 327.631 267.775 321.383C264.433 314.618 260.62 310.923 260.582 310.886L260.903 310.55C260.942 310.587 264.815 314.339 268.192 321.177C271.308 327.484 274.635 337.789 272.794 351.068Z" fill="#F2F2F2"/>
<path d="M104.559 351.059H191.767C191.767 351.059 193.535 325.132 183.076 324.838C172.617 324.543 173.795 336.328 160.685 320.124C147.574 303.92 131.664 304.804 129.602 314.379C127.54 323.954 133.579 331.614 122.531 329.257C111.483 326.9 95.5731 333.087 104.559 351.059Z" fill="#6C63FF" fill-opacity="0.38"/>
<path d="M149.635 351.065L149.93 351.053C149.243 333.983 145.668 323.016 142.79 316.821C139.665 310.095 136.654 307.372 136.624 307.345L136.428 307.565C136.457 307.592 139.434 310.288 142.534 316.968C145.396 323.137 148.951 334.06 149.635 351.065Z" fill="#F2F2F2"/>
<path d="M118.073 351.1L118.355 351.018C114.95 339.329 106.93 331.948 106.849 331.875L106.651 332.093C106.731 332.165 114.691 339.494 118.073 351.1Z" fill="#F2F2F2"/>
<path d="M178.032 351.08L178.324 351.039C177.168 342.706 179.255 336.24 181.21 332.284C183.326 328 185.74 325.66 185.765 325.637L185.561 325.424C185.536 325.448 183.084 327.823 180.946 332.153C178.973 336.147 176.866 342.672 178.032 351.08Z" fill="#F2F2F2"/>
<path d="M60.9887 37.8196L80.9265 3.28625L100.864 37.8196H60.9887Z" stroke="#71D5FF" stroke-opacity="0.24" stroke-width="3"/>
<circle cx="423.886" cy="89.6065" r="16.3026" stroke="#71D5FF" stroke-opacity="0.24" stroke-width="3"/>
<rect x="62.8979" y="95.2726" width="109.331" height="110.892" rx="8" fill="white"/>
<rect x="63.3979" y="95.7726" width="108.331" height="109.892" rx="7.5" stroke="#B0AFE8" stroke-opacity="0.24"/>
<circle cx="117.564" cy="130.36" r="20.128" fill="#71D5FF" fill-opacity="0.24"/>
<rect x="86.7449" y="169.437" width="61.6376" height="5.29209" rx="2.64605" fill="#71D5FF" fill-opacity="0.24"/>
<rect x="95.9536" y="182.336" width="43.22" height="5.29209" rx="2.64605" fill="#71D5FF" fill-opacity="0.24"/>
</svg>
